<svg xmlns="http://www.w3.org/2000/svg" version="1.1" xmlns:xlink="http://www.w3.org/1999/xlink" xmlns:svgjs="http://svgjs.dev/svgjs" width="2000" height="1500" viewBox="0 0 2000 1500"><rect width="2000" height="1500" fill="#ffffff"></rect><g transform="matrix(0.75,0,0,0.75,249.09346826658373,155.41279661199655)"><svg viewBox="0 0 396 314" data-background-color="#ffffff" preserveAspectRatio="xMidYMid meet" height="1585" width="2000" xmlns="http://www.w3.org/2000/svg" xmlns:xlink="http://www.w3.org/1999/xlink"><g id="tight-bounds" transform="matrix(1,0,0,1,0.2399549585081786,0.05605204107934014)"><svg viewBox="0 0 395.52 313.8878959178413" height="313.8878959178413" width="395.52"><g><svg viewBox="0 0 395.52 313.8878959178413" height="313.8878959178413" width="395.52"><g transform="matrix(1,0,0,1,0,153.50077779180805)"><svg viewBox="0 0 395.52 160.38711812603327" height="160.38711812603327" width="395.52"><g id="textblocktransform"><svg viewBox="0 0 395.52 160.38711812603327" height="160.38711812603327" width="395.52" id="textblock"><g><svg viewBox="0 0 395.52 104.93177287633782" height="104.93177287633782" width="395.52"><g transform="matrix(1,0,0,1,0,0)"><svg width="395.52" viewBox="3.3742099999999993 -11.483140000000002 131.71855 34.94505000000001" height="104.93177287633782" data-palette-color="#6b7280"><path d="M8.802 14.757l-1.707-0.429-1.239-23.24-2.482-1.902 0.168-0.669 9.651 2.422-0.168 0.669-3.415 0.38 0.712 16.346 0.252 0.063 11.05-15.517 1.542 0.387 2.044 18.804 0.204 0.051 8.036-14.067-2.802-2.023 0.168-0.669 8.186 2.055-0.168 0.669-2.756 0.587-11.98 19.922-1.746-0.438-2.238-18.893-0.213-0.054zM51.351 22.435l-7.967-0.469 0.041-0.689 2.251-0.979 10.81-21.813 1.797 0.106 8.15 22.888 2.408 1.294-0.041 0.689-9.323-0.549 0.04-0.689 3.065-1.021-2.312-6.658-8.905-0.524-3.083 6.43 3.109 1.295zM56.412 3.5l-4.023 8.438 7.108 0.418zM93.014 21.727l-1.531 0.165-11.698-21.279-2.545-0.842-0.074-0.686 9.415-1.015 0.074 0.686-2.854 1.515 0.013 0.119 8.469 15.773 0.209-0.022 4.873-17.212-0.013-0.119-3.24-0.858-0.074-0.686 7.884-0.85 0.074 0.686-2.004 1.373zM135.093 12.706l-18.721 4.972-0.177-0.667 2.576-2.143-5.083-19.136-3.3-0.583-0.177-0.666 17.686-4.698 1.564 5.885-0.667 0.178-3.005-3.289-8.573 2.277 2.146 8.08 6.253-1.661 0.5-3.144 0.657-0.174 2.034 7.654-0.658 0.175-1.983-2.443-6.253 1.661 2.367 8.911 9.529-2.531 0.88-5.024 0.667-0.178z" opacity="1" transform="matrix(1,0,0,1,0,0)" fill="#000000" class="wordmark-text-0" data-fill-palette-color="primary" id="text-0"></path></svg></g></svg></g><g transform="matrix(1,0,0,1,118.31980799999998,139.16330882596702)"><svg viewBox="0 0 158.88038400000002 21.223809300066243" height="21.223809300066243" width="158.88038400000002"><g transform="matrix(1,0,0,1,0,0)"><svg width="158.88038400000002" viewBox="1.75 -30 226.43 30.25" height="21.223809300066243" data-palette-color="#000000"><path d="M35.15-24.95L45.15-25Q45.15-24.95 45.2-24.25L45.2-24.25 42.3-23.95 40.5-23.55 31.55 0 28.55 0 22.7-19.8 15.95 0 12.95 0 5.15-23.35Q4.85-23.9 4.4-23.95L4.4-23.95 1.8-24.2Q1.75-24.5 1.75-24.95L1.75-24.95 12.25-25Q12.25-24.95 12.3-24.25L12.3-24.25 8.7-24 15.45-1.6 22.75-24.75 24.45-25 30.8-0.8 38.65-23.2Q38.8-23.5 38.5-23.7 38.2-23.9 37.8-23.95L37.8-23.95 35.2-24.2Q35.15-24.5 35.15-24.95L35.15-24.95ZM47.3-11.5L47.3-11.5Q47.3-0.7 55.7-0.7L55.7-0.7Q57.9-0.7 60.4-1.18 62.9-1.65 63.6-2.05L63.6-2.05 63.95-1.55Q62.8-0.8 60.17-0.3 57.55 0.2 55.37 0.2 53.2 0.2 51.47-0.25 49.75-0.7 47.95-1.85 46.15-3 45.1-5.45 44.05-7.9 44.05-11.45L44.05-11.45Q44.05-18.05 47.45-21.55L47.45-21.55Q51-25.2 55.7-25.2 60.4-25.2 62.87-22.6 65.35-20 65.35-15.3L65.35-15.3Q65.35-14.3 65.2-13.15L65.2-13.15 47.35-13.15Q47.3-12.6 47.3-11.5ZM62.4-15.65L62.4-15.65Q62.4-19.4 60.75-21.78 59.1-24.15 56.25-24.15L56.25-24.15Q52.55-24.15 50-20.9L50-20.9Q47.95-18.35 47.45-14.1L47.45-14.1 62.35-14.1Q62.4-14.65 62.4-15.65ZM91.14-0.6L91.14-0.6Q91.44-0.6 91.74-0.65L91.74-0.65Q94.34-0.7 96.09-2.27 97.84-3.85 97.84-6.9L97.84-6.9Q97.84-9.9 93.14-11.25L93.14-11.25Q91.19-11.8 89.24-12.45 87.29-13.1 85.92-14.5 84.54-15.9 84.54-18.15L84.54-18.15Q84.54-21.35 86.99-23.28 89.44-25.2 93.19-25.2L93.19-25.2Q95.99-25.2 98.84-24.2L98.84-24.2 99.74-23.85 99.74-18.1 98.79-17.75 98.59-22Q95.69-24.3 93.74-24.3L93.74-24.3Q90.99-24.3 89.39-22.68 87.79-21.05 87.79-18.35L87.79-18.35Q87.79-16.8 89.17-15.85 90.54-14.9 92.49-14.35 94.44-13.8 96.39-13.13 98.34-12.45 99.72-10.93 101.09-9.4 101.09-6.95L101.09-6.95Q101.09-3.65 98.62-1.73 96.14 0.2 91.59 0.2 87.04 0.2 84.04-1.95L84.04-1.95 84.04-7.7 84.94-8.05 85.19-3.8Q85.89-2.5 87.72-1.55 89.54-0.6 91.14-0.6ZM115.39-0.95L115.39-0.95 117.34-1.05 117.49-0.55Q117.44-0.55 116.79-0.4L116.79-0.4Q115.29-0.05 113.44-0.05L113.44-0.05Q111.74-0.15 110.34-0.63 108.94-1.1 107.74-2.63 106.54-4.15 106.54-6.55L106.54-6.55 106.54-24.1 103.99-24.1 104.39-24.5 106.59-24.95 106.99-29.75 109.79-30 109.79-25 115.84-25 115.84-24.1 109.79-24.1 109.79-7.4Q109.79-3.6 111.39-2.27 112.99-0.95 115.39-0.95ZM126.04-22.95L126.04-22.95 126.04-18.95Q129.99-24.75 133.79-24.85L133.79-24.85Q134.09-24.85 134.39-24.85L134.39-24.85 137.19-24.5 135.89-21.5Q134.94-22.45 133.44-22.45L133.44-22.45Q129.79-22.4 126.04-17.6L126.04-17.6 126.04-1 130.29-0.75Q130.29-0.7 130.24 0L130.24 0 119.74 0.05Q119.74-0.4 119.79-0.65L119.79-0.65 122.39-1Q122.79-1.05 122.79-1.7L122.79-1.7 122.79-23.4Q122.69-23.75 122.49-23.75L122.49-23.75 119.49-23.85 119.54-24.55Q122.24-25 123.64-25 125.04-25 125.54-24.35 126.04-23.7 126.04-22.95ZM141.99-11.5L141.99-11.5Q141.99-0.7 150.39-0.7L150.39-0.7Q152.59-0.7 155.09-1.18 157.59-1.65 158.29-2.05L158.29-2.05 158.64-1.55Q157.49-0.8 154.86-0.3 152.24 0.2 150.06 0.2 147.89 0.2 146.16-0.25 144.44-0.7 142.64-1.85 140.84-3 139.79-5.45 138.74-7.9 138.74-11.45L138.74-11.45Q138.74-18.05 142.14-21.55L142.14-21.55Q145.69-25.2 150.39-25.2 155.09-25.2 157.56-22.6 160.04-20 160.04-15.3L160.04-15.3Q160.04-14.3 159.89-13.15L159.89-13.15 142.04-13.15Q141.99-12.6 141.99-11.5ZM157.09-15.65L157.09-15.65Q157.09-19.4 155.44-21.78 153.79-24.15 150.94-24.15L150.94-24.15Q147.24-24.15 144.69-20.9L144.69-20.9Q142.64-18.35 142.14-14.1L142.14-14.1 157.04-14.1Q157.09-14.65 157.09-15.65ZM179.78-1.9L179.78-1.9 179.63-1.9Q175.13 0.2 170.88 0.2L170.88 0.2Q164.23 0.2 163.83-5.05L163.83-5.05Q163.78-5.4 163.78-5.7L163.78-5.7Q163.78-9.55 168.83-10.85L168.83-10.85Q171.83-11.5 179.63-12.4L179.63-12.4 179.63-16.8Q179.63-18.9 179.13-20.4 178.63-21.9 178.03-22.63 177.43-23.35 176.48-23.75L176.48-23.75Q175.28-24.25 173.81-24.25 172.33-24.25 170.43-23.5L170.43-23.5Q167.68-22.35 165.53-20.6L165.53-20.6 165.33-16.7 164.38-16.45 164.38-22.5 164.88-22.7Q168.78-24.4 170.83-24.75 172.88-25.1 173.83-25.13 174.78-25.15 175.66-25.1 176.53-25.05 177.93-24.65 179.33-24.25 180.36-23.53 181.38-22.8 182.13-21.35 182.88-19.9 182.88-17.9L182.88-17.9 182.88-2.6Q182.88-1.05 183.68-1.05L183.68-1.05 186.73-0.9 186.68-0.15Q183.88 0.25 181.68 0.25L181.68 0.25Q181.08 0.2 180.43-0.38 179.78-0.95 179.78-1.9ZM171.78-0.6L171.78-0.6Q175.48-0.6 179.63-3.2L179.63-3.2 179.63-11.45Q172.13-11.2 170.21-10.58 168.28-9.95 167.56-8.63 166.83-7.3 166.83-6L166.83-6Q166.83-5.75 166.83-5.5L166.83-5.5Q166.98-2.9 168.38-1.75 169.78-0.6 171.78-0.6ZM201.28-24.05L201.28-24.05Q198.28-24 194.78-21.85L194.78-21.85 194.78-1 198.53-0.75Q198.53-0.7 198.48 0L198.48 0 188.48 0.05Q188.48-0.4 188.53-0.65L188.53-0.65 191.13-1Q191.43-1 191.53-1.45L191.53-1.45 191.53-23.4Q191.43-23.75 191.23-23.75L191.23-23.75 188.23-23.85 188.28-24.55Q190.98-25 192.38-25 193.78-25 194.28-24.35 194.78-23.7 194.78-22.95L194.78-22.95 194.78-22.35Q198.93-24.95 202.38-25.15L202.38-25.15Q207.13-25.15 208.83-22.45L208.83-22.45Q213.18-24.95 217.03-25.15L217.03-25.15Q220.53-25.15 222.33-23.7L222.33-23.7Q223.18-23.05 223.81-21.68 224.43-20.3 224.43-18.4L224.43-18.4 224.43-1 228.18-0.75Q228.18-0.7 228.13 0L228.13 0 218.13 0.05Q218.13-0.4 218.18-0.65L218.18-0.65 220.78-1Q221.08-1 221.18-1.45L221.18-1.45 221.18-17.15Q221.18-19.15 220.68-20.58 220.18-22 219.58-22.65 218.98-23.3 218.08-23.65L218.08-23.65Q217.08-24.05 215.93-24.05L215.93-24.05Q212.83-24 209.18-21.7L209.18-21.7Q209.83-20.3 209.83-18.4L209.83-18.4 209.83-1 213.58-0.75Q213.58-0.7 213.53 0L213.53 0 203.48 0.05 203.53-0.65 206.13-1Q206.48-1.05 206.58-1.5L206.58-1.5 206.58-17.2Q206.58-19.65 205.93-21.23 205.28-22.8 204.18-23.3L204.18-23.3Q202.68-24.05 201.28-24.05Z" opacity="1" transform="matrix(1,0,0,1,0,0)" fill="#000000" class="slogan-text-1" data-fill-palette-color="secondary" id="text-1"></path></svg></g></svg></g></svg></g></svg></g><g transform="matrix(1,0,0,1,75.54432,0)"><svg viewBox="0 0 244.43135999999998 146.6544706018822" height="146.6544706018822" width="244.43135999999998"><g><svg xmlns="http://www.w3.org/2000/svg" xmlns:xlink="http://www.w3.org/1999/xlink" version="1.1" x="0" y="0" viewBox="5.030000000000001 23.088 90.001 53.999" enable-background="new 0 0 100 100" xml:space="preserve" height="146.6544706018822" width="244.43135999999998" class="icon-icon-0" data-fill-palette-color="accent" id="icon-0"><g fill="#000000" data-fill-palette-color="accent"><path d="M91.446 77.087c-26.25 0-35.598-13.385-35.624-24.848-0.021-8.546 4.989-15.264 11.406-15.296 0.005 0 0.012 0 0.018 0 0.947 0 1.857 0.375 2.529 1.045 0.675 0.675 1.055 1.59 1.055 2.545 0 2.293 1.862 4.157 4.151 4.157s4.151-1.865 4.151-4.157c0-3.086-1.085-10.267-11.128-10.267-16.792 0-23.31 11.396-30.212 23.46C31.221 65.211 24.426 77.087 8.614 77.087c-1.979 0-3.584-1.607-3.584-3.589s1.605-3.589 3.584-3.589c11.659 0 16.895-9.152 22.958-19.751 7.259-12.689 15.486-27.07 36.431-27.07 13.504 0 18.295 9.398 18.295 17.446 0 6.25-5.078 11.336-11.318 11.336-4.394 0-8.212-2.522-10.086-6.196-1.088 1.458-1.911 3.821-1.904 6.548 0.019 8.55 7.507 17.686 28.457 17.686 1.979 0 3.584 1.607 3.584 3.589S93.426 77.087 91.446 77.087z" fill="#000000" data-fill-palette-color="accent"></path></g></svg></g></svg></g><g></g></svg></g><defs></defs></svg><rect width="395.52" height="313.8878959178413" fill="none" stroke="none" visibility="hidden"></rect></g></svg></g></svg>